<?xml version="1.0" encoding="utf-8"?>
<!-- Generator: Adobe Illustrator 27.9.0, SVG Export Plug-In . SVG Version: 6.00 Build 0)  -->
<svg version="1.1" id="Layer_1" xmlns="http://www.w3.org/2000/svg" xmlns:xlink="http://www.w3.org/1999/xlink" x="0px" y="0px"
	 viewBox="0 0 1200 550.15" style="enable-background:new 0 0 1200 550.15;" xml:space="preserve">
<style type="text/css">
	.st0{fill:#FFFFFF;stroke:#000000;stroke-miterlimit:10;}
	.st1{fill:#5A5AFF;}
	.st2{stroke:#000000;stroke-width:0.5;stroke-linecap:round;stroke-miterlimit:10;}
	.st3{stroke:#8D87FF;stroke-width:0.5;stroke-linecap:round;stroke-miterlimit:10;}
	.st4{fill:none;stroke:#000000;stroke-linecap:round;stroke-miterlimit:10;}
	.st5{fill:#8D87FF;}
	.st6{stroke:#000000;stroke-width:0.6;stroke-linecap:round;stroke-miterlimit:10;}
	.st7{stroke:#87A3FF;stroke-linecap:round;stroke-miterlimit:10;}
	.st8{stroke:#688AFF;stroke-width:0.5;stroke-linecap:round;stroke-miterlimit:10;}
	.st9{stroke:#7FAAFF;stroke-width:0.5;stroke-linecap:round;stroke-miterlimit:10;}
	.st10{stroke:#76BBFF;stroke-width:0.5;stroke-linecap:round;stroke-miterlimit:10;}
	.st11{fill:none;stroke:#8D87FF;stroke-miterlimit:10;}
	.st12{fill:none;stroke:#8D87FF;stroke-linecap:round;stroke-miterlimit:10;}
	.st13{stroke:#8D87FF;stroke-linecap:round;stroke-miterlimit:10;}
	.st14{stroke:#000000;stroke-linecap:round;stroke-miterlimit:10;}
	.st15{stroke:#FFFFFF;stroke-linecap:round;stroke-miterlimit:10;}
	.st16{stroke:#FFFFFF;stroke-width:0.5;stroke-linecap:round;stroke-miterlimit:10;}
	.st17{fill:none;stroke:#FFFFFF;stroke-linecap:round;stroke-miterlimit:10;}
	.st18{fill:none;stroke:#5A5AFF;stroke-linecap:round;stroke-miterlimit:10;}
	.st19{fill:none;stroke:#5A5AFF;stroke-miterlimit:10;}
	.st20{stroke:#8D87FF;stroke-width:0.25;stroke-linecap:round;stroke-miterlimit:10;}
	.st21{stroke:#6E6EDF;stroke-width:0.25;stroke-linecap:round;stroke-miterlimit:10;}
	.st22{stroke:#688AFF;stroke-width:0.25;stroke-linecap:round;stroke-miterlimit:10;}
	.st23{stroke:#7FAAFF;stroke-width:0.25;stroke-linecap:round;stroke-miterlimit:10;}
	.st24{stroke:#76BBFF;stroke-width:0.25;stroke-linecap:round;stroke-miterlimit:10;}
	.st25{stroke:#6E6EDF;stroke-width:0.5;stroke-linecap:round;stroke-miterlimit:10;}
	.st26{stroke:#8D87FF;stroke-width:0.45;stroke-linecap:round;stroke-miterlimit:10;}
	.st27{fill:none;stroke:#5A5AFF;stroke-width:1.3;stroke-linecap:round;stroke-linejoin:bevel;stroke-miterlimit:10;}
	.st28{display:none;}
	.st29{display:inline;}
	.st30{fill:#6E6EDF;}
	.st31{fill:#688AFF;}
	.st32{fill:#7FAAFF;}
	.st33{fill:#FFFFFF;}
	.st34{fill:#9E9EFB;}
	.st35{fill:#9393DF;}
	.st36{fill:#82A2FB;}
	.st37{fill:#96B1FF;}
	.st38{fill:#9EC3FF;}
	.st39{stroke:#6E6EDF;stroke-width:4;stroke-linecap:round;stroke-miterlimit:10;}
	.st40{stroke:#688AFF;stroke-width:4;stroke-linecap:round;stroke-miterlimit:10;}
	.st41{stroke:#8D87FF;stroke-width:4;stroke-linecap:round;stroke-miterlimit:10;}
	.st42{stroke:#5A5AFF;stroke-width:4;stroke-linecap:round;stroke-miterlimit:10;}
	.st43{stroke:#7FAAFF;stroke-width:4;stroke-linecap:round;stroke-miterlimit:10;}
</style>
<g>
	<path class="st1" d="M141.55,541.15c-92.82,0-137.94-54.71-137.94-167.23V258c0-16.62,9.13-26.12,25.03-26.12h7.21
		c15.93,0,25.06,9.5,25.06,26.12v115.44c0,78.92,24.12,112.59,80.64,112.59s80.64-33.53,80.64-112.11V258
		c0-16.62,9.13-26.12,25.06-26.12h7.21c15.93,0,25.06,9.5,25.06,26.12v115.92C279.51,486.45,234.39,541.15,141.55,541.15z"/>
	<path class="st1" d="M6.17,372.59V255.73c0-15.27,8.09-23.85,22.48-23.85h7.21c14.39,0,22.48,8.58,22.48,23.85V372.1
		c0,82.56,26.1,115.98,83.22,115.98c57.13,0,83.22-33.41,83.22-115.49V255.73c0-15.27,8.09-23.85,22.48-23.85h7.21
		c14.39,0,22.48,8.58,22.48,23.85v116.86c0,113.11-45.88,166.09-135.38,166.09S6.17,486.17,6.17,372.59z"/>
	<path class="st1" d="M711.17,385.88c0-92.62,62.08-156.27,152.06-156.27c87.35,0,143.14,58.41,146.81,145.22
		c0.51,17.38-9.49,26.32-26.32,26.32H770.1c2.11,58.41,38.41,91.54,96.81,91.54c32.62,0,53.16-8.41,72.11-25.25
		c11.57-10,18.92-18.43,33.68-14.75l6.3,1.59c18.43,4.73,22.11,14.73,12.11,29.46c-26.32,38.95-68.92,58.41-125.25,58.41
		C772.2,542.15,711.17,480.07,711.17,385.88z M950.47,352.87c-4.15-47.12-36.26-77.19-88.57-77.19c-49.73,0-84.42,25.91-91.18,77.19
		H950.47z"/>
	<path class="st1" d="M1171.1,239.44c17.61,0,26.42,11.41,24.34,27.99l-0.51,4.13c-1.57,16.58-11.41,22.8-28.5,22.8
		c-48.69,1.04-72,36.26-72,98.42v120.69c0,16.58-9.34,25.91-25.91,25.91h-6.2c-16.58,0-25.91-9.34-25.91-25.91V268.97
		c0-16.58,9.34-25.89,25.91-25.89h6.2c16.58,0,25.91,8.81,25.91,24.85v24.85c9.34-26.42,33.15-53.32,76.65-53.32V239.44z"/>
</g>
<g>
	<path class="st5" d="M331.04,364.89c-6.86,0-12.46-5.57-12.46-12.46V165.89c0-6.89,5.6-12.46,12.46-12.46
		c6.86,0,12.46,5.57,12.46,12.46v186.54C343.5,359.31,337.91,364.89,331.04,364.89z"/>
</g>
<g>
	<polyline points="629.03,430.44 629.07,259.23 629.12,88.02 	"/>
	<path class="st5" d="M629.04,441.66L629.04,441.66c-6.18,0-11.2-5.04-11.2-11.22l0.1-342.43c0-6.21,5.01-11.22,11.2-11.22l0,0
		c6.18,0,11.2,5.04,11.2,11.22l-0.1,342.43C640.24,436.65,635.23,441.66,629.04,441.66z"/>
</g>
<g>
	<polyline points="663.24,332.15 663.26,256.59 663.28,181.03 	"/>
	<path class="st30" d="M663.22,344.61L663.22,344.61c-6.91,0-12.46-5.6-12.46-12.46l0.05-151.12c0-6.89,5.6-12.46,12.46-12.46
		c6.86,0,12.46,5.57,12.46,12.46l-0.05,151.12C675.68,339.04,670.08,344.61,663.22,344.61z"/>
</g>
<path class="st1" d="M482.74,542.15c0,0,0,0-0.05,0l-38.7-0.07c-50.15-1.22-71.62-25.66-80.91-45.96
	c-8.86-19.26-8.47-38.58-8.28-47.88c0-9.32-0.15-75.75-0.29-148.3l-0.49-197.2c-0.05-13.75,11.1-24.95,24.88-24.98h0.05
	c13.73,0,24.88,11.12,24.93,24.88l0.49,197.17c0.15,72.44,0.29,138.8,0.34,146.15c-0.15,9.27-0.39,20.45,3.7,29.33
	c2.04,4.5,7.4,16.21,36.22,16.92l38.17,0.07c13.73,0.02,24.88,11.2,24.88,24.95C507.67,531,496.47,542.15,482.74,542.15z"/>
<path class="st1" d="M683.42,541.79l-38.7-0.02c-21.66-0.56-39.48-5.82-53.65-15.63c-12.32-8.54-21.62-20.28-27.65-34.86
	c-4.14-10.1-6.57-21.18-7.55-33.91c-0.49-7.01-0.39-13.1-0.29-17.43l-0.39-387c0-13.78,11.15-24.93,24.93-24.93
	s24.93,11.15,24.93,24.93l0.44,384.17c-0.15,7.08-0.24,11.51,0.15,16.6c0.54,7.3,1.85,13.56,3.89,18.57
	c2.34,5.6,5.6,9.86,9.93,12.88c6.04,4.16,14.8,6.45,25.95,6.74l38.02,0.02c13.78,0,24.93,11.15,24.93,24.93
	C708.35,530.64,697.2,541.79,683.42,541.79z"/>
<g>
	<path class="st31" d="M428.61,451.38c-6.86,0-12.46-5.57-12.46-12.46V53.45c0-6.89,5.6-12.46,12.46-12.46
		c6.86,0,12.46,5.57,12.46,12.46v385.46C441.07,445.8,435.47,451.38,428.61,451.38z"/>
</g>
<g>
	<path class="st32" d="M462.93,401.65c-6.86,0-12.46-5.57-12.46-12.46v-286c0-6.89,5.6-12.46,12.46-12.46
		c6.86,0,12.46,5.57,12.46,12.46v286C475.39,396.07,469.79,401.65,462.93,401.65z"/>
</g>
<g>
	<path class="st31" d="M531.62,390.03c-6.86,0-12.46-5.57-12.46-12.46V115.23c0-6.89,5.6-12.46,12.46-12.46
		c6.86,0,12.46,5.57,12.46,12.46v262.34C544.09,384.46,538.49,390.03,531.62,390.03z"/>
</g>
<g>
	<path class="st32" d="M497.93,323.65c-6.86,0-12.46-5.57-12.46-12.46V186.77c0-6.89,5.6-12.46,12.46-12.46
		c6.86,0,12.46,5.57,12.46,12.46v124.41C510.4,318.08,504.8,323.65,497.93,323.65z"/>
</g>
<polygon class="st1" points="812.23,281.87 251.1,281.73 251.1,231.88 837.61,232.03 "/>
</svg>
